<svg width="22" height="22" viewBox="0 0 22 22" fill="none" xmlns="http://www.w3.org/2000/svg">
<path d="M4 6L7 19" stroke="#AAACB2"/>
<path d="M3.47283 6.42825C3.27526 5.63799 4.06578 4.92862 4.8521 5.14133C5.69859 5.37032 6.69065 5.56951 7.5 5.53695C9.39726 5.46061 10.237 4.23886 12.125 4.03695C13.5027 3.88962 15.4407 4.21768 16.4056 4.41001C16.7722 4.48308 17.0569 4.76468 17.1476 5.12734L18.6015 10.9428C18.7832 11.6698 18.1273 12.3449 17.3871 12.2279C16.3885 12.07 15.1127 11.9313 14.125 12.0369C12.237 12.2389 11.3973 13.4606 9.5 13.5369C8.16673 13.5906 6.33766 13.0153 5.48026 12.714C5.17646 12.6072 4.95369 12.3517 4.87559 12.0393L3.47283 6.42825Z" fill="#0ABF00"/>
</svg>
