<svg width="175" height="22" viewBox="0 0 175 22" fill="none" xmlns="http://www.w3.org/2000/svg">
<rect x="10.8184" y="5.81836" width="6.36364" height="8.18182" rx="0.909091" fill="#FFBF00"/>
<rect width="6.36364" height="2.72727" rx="0.909091" transform="matrix(1 0 0 -1 10.8184 6.72705)" fill="#ECECEE"/>
<rect x="11.7266" y="6.72705" width="0.909091" height="6.36364" rx="0.454545" fill="url(#paint0_linear_1523_3179)"/>
<rect x="15.3633" y="6.72705" width="0.909091" height="6.36364" rx="0.454545" fill="url(#paint1_linear_1523_3179)"/>
<rect x="13.5449" y="6.72705" width="0.909091" height="6.36364" rx="0.454545" fill="url(#paint2_linear_1523_3179)"/>
<rect width="4.54545" height="2.72727" rx="0.909091" transform="matrix(-4.37114e-08 1 1 4.37114e-08 10.8184 4)" fill="#ECECEE"/>
<path d="M17.1816 7.63623H18.0907C18.5928 7.63623 18.9998 8.04324 18.9998 8.54532V11.2726C18.9998 11.7747 18.5928 12.1817 18.0907 12.1817H17.1816" stroke="#FFBF00" stroke-width="1.36364" stroke-linecap="round"/>
<path d="M14 10.8569L12.2861 17.2856C11.0004 18.9999 4.99958 18.9999 3.71387 17.2856L2 10.8569H14Z" fill="#DDDEE0"/>
<path d="M12.2857 17.2855L14 10.8569H2L3.71429 17.2855C5 18.9998 11 18.9998 12.2857 17.2855Z" fill="#DDDEE0"/>
<ellipse cx="8" cy="10.857" rx="6" ry="1.28571" fill="#AAACB2"/>
<mask id="mask0_1523_3179" style="mask-type:alpha" maskUnits="userSpaceOnUse" x="2" y="7" width="12" height="6">
<path d="M14 11.2861H13.6562C12.831 11.7849 10.6104 12.1426 8 12.1426C5.38963 12.1426 3.16898 11.7849 2.34375 11.2861H2V7H14V11.2861Z" fill="#D9D9D9"/>
</mask>
<g mask="url(#mask0_1523_3179)">
<path d="M11.624 10.7179C12.2515 11.3507 12.248 12.3722 11.6157 13.0001L11.4923 13.1115C10.8303 13.6556 9.54312 14.0144 8.94784 14.1311L8.18987 13.3671C8.31114 12.773 8.68006 11.4886 9.22943 10.8307L9.34109 10.7076C9.97409 10.0801 10.9962 10.0851 11.624 10.7179Z" fill="#955500"/>
<rect x="6.29102" y="10.4385" width="1.35903" height="2.71807" transform="rotate(138.166 6.29102 10.4385)" fill="#E3E3E3"/>
<path d="M8.50686 13.9302C7.66801 14.6811 6.37852 14.6098 5.62759 13.7709C5.58054 13.7184 5.53682 13.6639 5.49621 13.608C4.85302 12.7378 4.48353 11.0916 4.37504 10.3336L5.38788 9.42693C6.12926 9.61835 7.72467 10.1671 8.51871 10.9023C8.56976 10.9489 8.61897 10.9997 8.66603 11.0523C9.41627 11.8911 9.34535 13.1794 8.50686 13.9302Z" fill="#B96900"/>
<ellipse cx="4.22484" cy="8.63985" rx="1.01927" ry="0.679517" transform="rotate(138.166 4.22484 8.63985)" fill="url(#paint3_linear_1523_3179)"/>
<ellipse cx="3.71898" cy="9.09347" rx="1.01927" ry="0.679517" transform="rotate(138.166 3.71898 9.09347)" fill="url(#paint4_linear_1523_3179)"/>
</g>
<path d="M44.5684 4.4668V11.7676H43.4883V10.127H40.2617V9.23828H43.4883V7.59766H40.3848C39.585 9.55273 37.7051 10.9678 35.1074 11.7402L34.6562 10.8926C37.5957 10.0176 39.4209 8.37695 39.6465 6.27148H35.2715V5.36914H40.8086C40.8086 5.84766 40.7539 6.30566 40.6582 6.73633H43.4883V4.4668H44.5684ZM40.5898 11.8906C43.0508 11.8906 44.6367 12.7656 44.6367 14.2148C44.6367 15.6777 43.0508 16.5527 40.5898 16.5527C38.1016 16.5527 36.5293 15.6777 36.5293 14.2148C36.5293 12.7656 38.1016 11.8906 40.5898 11.8906ZM40.5898 12.752C38.7578 12.7383 37.582 13.2988 37.582 14.2148C37.582 15.1309 38.7578 15.6777 40.5898 15.6777C42.3945 15.6777 43.5566 15.1309 43.5703 14.2148C43.5566 13.2988 42.3945 12.7383 40.5898 12.752ZM56.6406 4.45312V16.6074H55.5605V4.45312H56.6406ZM53.0449 5.7793C53.0312 9.2793 51.4043 12.3691 47.3301 14.3242L46.7422 13.4492C50.0303 11.8906 51.7051 9.55957 51.9512 6.6543H47.3027V5.7793H53.0449ZM69.8203 14.1602V15.0488H58.6914V14.1602H63.6953V11.5352H60.0039V5.31445H61.084V7.51562H67.4004V5.31445H68.4531V11.5352H64.748V14.1602H69.8203ZM61.084 10.6602H67.4004V8.39062H61.084V10.6602ZM76.9434 5.51953V6.59961H79.7871V4.4668H80.8672V13.3398H79.7871V10.0996H76.9434V11.1934H71.3652V5.51953H76.9434ZM72.4316 6.4082V10.332H75.8906V6.4082H72.4316ZM81.1406 15.4453V16.3477H73.0059V12.5469H74.0859V15.4453H81.1406ZM76.9434 9.21094H79.7871V7.50195H76.9434V9.21094ZM87.1699 7.7207C87.1699 9.92188 88.5781 12.1367 90.3418 12.9434L89.6992 13.8184C88.3184 13.1074 87.1768 11.6514 86.6367 9.92188C86.0967 11.7402 84.9551 13.2988 83.5742 14.0371L82.877 13.1758C84.6543 12.3008 86.0762 9.96289 86.0762 7.7207V5.50586H87.1699V7.7207ZM92.9668 4.45312V16.6348H91.9004V9.48438H89.0156V8.60938H91.9004V4.45312H92.9668ZM104.52 5.38281V10.7832H99.0234V5.38281H104.52ZM100.076 6.27148V9.9082H103.453V6.27148H100.076ZM108.006 4.45312V7.78906H109.838V8.69141H108.006V12.5469H106.939V4.45312H108.006ZM104.848 12.3145C104.834 14.0645 106.816 15.3496 108.963 15.7051L108.525 16.5527C106.728 16.2246 105.053 15.2949 104.328 13.9004C103.59 15.2949 101.908 16.2246 100.104 16.5527L99.6797 15.7051C101.826 15.3496 103.781 14.0645 103.781 12.3145V11.9453H104.848V12.3145ZM114.719 12.6152C114.719 13.6885 115.293 14.8301 116.455 15.4863C117.604 14.7686 118.219 13.5586 118.219 12.6152V11.9453H119.271V12.6152C119.271 13.8594 120.188 15.1172 121.746 15.6504L121.213 16.4434C119.996 16.0127 119.142 15.165 118.725 14.1465C118.349 15.1309 117.604 16.0605 116.482 16.5391C115.3 16.0879 114.548 15.1924 114.186 14.1738C113.755 15.1582 112.914 16.0059 111.752 16.4434L111.205 15.6504C112.736 15.0762 113.666 13.7773 113.68 12.6152V11.9453H114.719V12.6152ZM120.639 4.4668V11.4121H119.572V4.4668H120.639ZM114.076 5.17773C115.922 5.17773 117.262 6.32617 117.262 8.02148C117.262 9.68945 115.922 10.8379 114.076 10.8379C112.23 10.8379 110.891 9.68945 110.891 8.02148C110.891 6.32617 112.23 5.17773 114.076 5.17773ZM114.076 6.09375C112.832 6.08008 111.93 6.88672 111.943 8.02148C111.93 9.14258 112.832 9.93555 114.076 9.94922C115.307 9.93555 116.209 9.14258 116.209 8.02148C116.209 6.88672 115.307 6.08008 114.076 6.09375ZM132.533 8.14453V9.00586H124.207V4.9043H125.273V8.14453H132.533ZM133.818 10.6602V11.5352H122.689V10.6602H133.818ZM132.602 15.418V16.3066H124.139V12.7793H125.205V15.418H132.602ZM144.865 4.45312V16.6074H143.799V10.2363H140.9V9.34766H143.799V4.45312H144.865ZM140.928 5.7793C140.928 9.22461 139.465 12.2871 135.404 14.2969L134.816 13.4355C138.111 11.8428 139.636 9.50488 139.848 6.6543H135.35V5.7793H140.928ZM160.492 12.3145V16.6348H159.412V13.1758H152.316V12.3145H160.492ZM160.492 4.45312V11.6172H159.412V8.4043H156.568V10.7969H150.99V5.36914H156.568V7.51562H159.412V4.45312H160.492ZM152.057 6.24414V9.93555H155.516V6.24414H152.057ZM172.564 4.45312V16.6074H171.484V4.45312H172.564ZM168.969 5.7793C168.955 9.2793 167.328 12.3691 163.254 14.3242L162.666 13.4492C165.954 11.8906 167.629 9.55957 167.875 6.6543H163.227V5.7793H168.969Z" fill="#6F7176"/>
<defs>
<linearGradient id="paint0_linear_1523_3179" x1="12.1811" y1="6.72705" x2="12.1811" y2="13.0907" gradientUnits="userSpaceOnUse">
<stop stop-color="#FFA600"/>
<stop offset="1" stop-color="#FFBF00"/>
</linearGradient>
<linearGradient id="paint1_linear_1523_3179" x1="15.8178" y1="6.72705" x2="15.8178" y2="13.0907" gradientUnits="userSpaceOnUse">
<stop stop-color="#FFA600"/>
<stop offset="1" stop-color="#FFBF00"/>
</linearGradient>
<linearGradient id="paint2_linear_1523_3179" x1="13.9995" y1="6.72705" x2="13.9995" y2="13.0907" gradientUnits="userSpaceOnUse">
<stop stop-color="#FFA600"/>
<stop offset="1" stop-color="#FFBF00"/>
</linearGradient>
<linearGradient id="paint3_linear_1523_3179" x1="3.91768" y1="7.66796" x2="4.532" y2="9.61174" gradientUnits="userSpaceOnUse">
<stop stop-color="#E3E3E3"/>
<stop offset="1" stop-color="#DBDBDB"/>
</linearGradient>
<linearGradient id="paint4_linear_1523_3179" x1="3.33049" y1="8.15113" x2="4.10747" y2="10.0358" gradientUnits="userSpaceOnUse">
<stop stop-color="#ECECEC"/>
<stop offset="0.326901" stop-color="#E3E3E3"/>
</linearGradient>
</defs>
</svg>
