<svg width="22" height="22" viewBox="0 0 22 22" fill="none" xmlns="http://www.w3.org/2000/svg">
<path d="M6.625 8.25L8.5 16.375" stroke="#AAACB2" stroke-width="0.625"/>
<path d="M6.29552 8.51766C6.17204 8.02375 6.66611 7.58039 7.15756 7.71333C7.68662 7.85645 8.30665 7.98094 8.8125 7.96059C9.99829 7.91288 10.5231 7.14929 11.7031 7.02309C12.5642 6.93101 13.7754 7.13605 14.3785 7.25626C14.6077 7.30193 14.7856 7.47793 14.8422 7.70459L15.7509 11.3393C15.8645 11.7936 15.4546 12.2156 14.992 12.1425C14.3678 12.0438 13.5704 11.9571 12.9531 12.0231C11.7731 12.1493 11.2483 12.9129 10.0625 12.9606C9.22921 12.9941 8.08604 12.6346 7.55016 12.4462C7.36029 12.3795 7.22106 12.2198 7.17224 12.0246L6.29552 8.51766Z" fill="#0ABF00"/>
<circle cx="11" cy="11" r="8.25" stroke="#F22E1D" stroke-width="1.5"/>
<path d="M16 5L5.5 17" stroke="#F22E1D" stroke-width="1.5"/>
</svg>
