<svg width="22" height="22" viewBox="0 0 22 22" fill="none" xmlns="http://www.w3.org/2000/svg">
<path d="M14.3105 10.7915C14.3105 12.745 12.7269 14.3286 10.7734 14.3286C8.81994 14.3286 7.23633 12.745 7.23633 10.7915C7.23633 8.83801 8.81994 7.25439 10.7734 7.25439C12.7269 7.25439 14.3105 8.83801 14.3105 10.7915Z" fill="#FFBF00"/>
<path d="M16.9152 10.5911C17.1056 10.657 17.1056 10.9262 16.9152 10.9921L15.123 11.613C14.9851 11.6607 14.8413 11.5584 14.8413 11.4124V10.1707C14.8413 10.0248 14.9851 9.92246 15.123 9.97021L16.9152 10.5911Z" fill="#FFBF00"/>
<path d="M15.2046 15.048C15.2906 15.2301 15.0982 15.4184 14.918 15.3284L13.2208 14.4816C13.0902 14.4165 13.0628 14.242 13.1671 14.14L14.0546 13.2716C14.1589 13.1696 14.3327 13.2008 14.395 13.3327L15.2046 15.048Z" fill="#FFBF00"/>
<path d="M10.7768 16.9363C10.705 17.1245 10.436 17.1162 10.3759 16.9239L9.81072 15.1134C9.76724 14.9741 9.87402 14.8335 10.0199 14.838L11.261 14.8763C11.4068 14.8809 11.5047 15.0278 11.4527 15.1641L10.7768 16.9363Z" fill="#FFBF00"/>
<path d="M6.37466 15.0818C6.18978 15.1618 6.00791 14.9634 6.1037 14.7861L7.00559 13.1176C7.07496 12.9892 7.25017 12.9675 7.34875 13.0751L8.18766 13.9905C8.28623 14.0981 8.24937 14.2708 8.11546 14.3287L6.37466 15.0818Z" fill="#FFBF00"/>
<path d="M4.63088 10.6104C4.44497 10.5328 4.46158 10.2641 4.65563 10.21L6.48275 9.70095C6.6233 9.66178 6.76054 9.77285 6.75154 9.91848L6.67494 11.1578C6.66593 11.3034 6.51606 11.3968 6.38141 11.3406L4.63088 10.6104Z" fill="#FFBF00"/>
<path d="M6.61604 6.26621C6.54214 6.07881 6.74645 5.90353 6.92044 6.00507L8.55862 6.96107C8.68463 7.03461 8.70057 7.21044 8.58983 7.30544L7.64742 8.11394C7.53669 8.20894 7.36533 8.16645 7.31181 8.03072L6.61604 6.26621Z" fill="#FFBF00"/>
<path d="M11.1642 4.65904C11.2481 4.47592 11.5161 4.50183 11.5634 4.69764L12.0088 6.54132C12.0431 6.68314 11.9273 6.81644 11.7821 6.8024L10.5462 6.68289C10.401 6.66884 10.3129 6.51583 10.3737 6.3832L11.1642 4.65904Z" fill="#FFBF00"/>
<path d="M15.4348 6.78693C15.6246 6.71921 15.7931 6.92915 15.6859 7.09972L14.6767 8.7057C14.5991 8.82924 14.4228 8.83942 14.3315 8.72563L13.5543 7.75724C13.463 7.64345 13.5111 7.47357 13.6485 7.42453L15.4348 6.78693Z" fill="#FFBF00"/>
<circle cx="11" cy="11" r="8.25" stroke="#F22E1D" stroke-width="1.5"/>
<path d="M16 5L5.5 17" stroke="#F22E1D" stroke-width="1.5"/>
</svg>
