<svg width="22" height="22" viewBox="0 0 22 22" fill="none" xmlns="http://www.w3.org/2000/svg">
<circle cx="12" cy="10" r="8" fill="#F7E8D6"/>
<path d="M12 18C14.1217 18 16.1566 17.1571 17.6569 15.6569C19.1571 14.1566 20 12.1217 20 10C20 7.87827 19.1571 5.84344 17.6569 4.34315C16.1566 2.84286 14.1217 2 12 2L12 7.98598C12.5342 7.98598 13.0464 8.19817 13.4241 8.57587C13.8018 8.95358 14.014 9.46585 14.014 10C14.014 10.5342 13.8018 11.0464 13.4241 11.4241C13.0464 11.8018 12.5342 12.014 12 12.014L12 18Z" fill="#232323"/>
<path d="M12 2C13.0506 2 14.0909 2.20734 15.0615 2.60938C16.0321 3.01141 16.9144 3.59995 17.6572 4.34277C18.4 5.08559 18.9886 5.96795 19.3906 6.93848C19.7927 7.90908 20 8.94943 20 10H1V9L4.20703 8.19727C4.30624 7.76839 4.44012 7.34709 4.60938 6.93848C5.01141 5.96795 5.59995 5.08559 6.34277 4.34277C7.08559 3.59995 7.96795 3.01141 8.93848 2.60938C9.90908 2.20734 10.9494 2 12 2Z" fill="#0ABF00"/>
<circle cx="7.5" cy="11.5" r="0.5" fill="#272727"/>
</svg>
