<svg width="20" height="20" viewBox="0 0 20 20" fill="none" xmlns="http://www.w3.org/2000/svg">
<path d="M15 10C15 12.7614 12.7614 15 10 15C7.23858 15 5 12.7614 5 10C5 7.23858 7.23858 5 10 5C12.7614 5 15 7.23858 15 10Z" fill="#FFBF00"/>
<path d="M18.6817 9.71653C18.9508 9.80974 18.9508 10.1903 18.6817 10.2835L16.1482 11.1611C15.9533 11.2286 15.75 11.0839 15.75 10.8776V9.12238C15.75 8.91613 15.9533 8.77139 16.1482 8.8389L18.6817 9.71653Z" fill="#FFBF00"/>
<path d="M16.2632 16.0164C16.3848 16.2739 16.1128 16.54 15.858 16.4129L13.4589 15.2158C13.2743 15.1237 13.2356 14.8771 13.383 14.7329L14.6376 13.5054C14.7851 13.3611 15.0307 13.4052 15.1187 13.5917L16.2632 16.0164Z" fill="#FFBF00"/>
<path d="M10.0046 18.686C9.90316 18.9521 9.52281 18.9403 9.43795 18.6685L8.63896 16.1091C8.5775 15.9123 8.72844 15.7135 8.93459 15.7199L10.689 15.7741C10.8952 15.7804 11.0335 15.9881 10.96 16.1808L10.0046 18.686Z" fill="#FFBF00"/>
<path d="M3.78141 16.0649C3.52007 16.178 3.26298 15.8974 3.39838 15.6469L4.67328 13.2882C4.77135 13.1068 5.01902 13.0761 5.15837 13.2282L6.34423 14.5223C6.48358 14.6743 6.43147 14.9184 6.24218 15.0003L3.78141 16.0649Z" fill="#FFBF00"/>
<path d="M1.31564 9.7435C1.05283 9.63387 1.07631 9.25407 1.35061 9.17763L3.93342 8.45798C4.1321 8.40262 4.32609 8.55962 4.31337 8.76548L4.20508 10.5174C4.19236 10.7232 3.9805 10.8552 3.79015 10.7758L1.31564 9.7435Z" fill="#FFBF00"/>
<path d="M4.12215 3.60289C4.01769 3.33798 4.3065 3.09021 4.55244 3.23374L6.86815 4.58513C7.04629 4.68908 7.06882 4.93763 6.91228 5.07192L5.5801 6.21481C5.42357 6.34911 5.18134 6.28904 5.10568 6.09717L4.12215 3.60289Z" fill="#FFBF00"/>
<path d="M10.552 1.33102C10.6707 1.07217 11.0495 1.1088 11.1164 1.38559L11.7461 3.99178C11.7945 4.19226 11.6309 4.3807 11.4256 4.36085L9.67847 4.19191C9.47318 4.17206 9.34869 3.95576 9.43464 3.76827L10.552 1.33102Z" fill="#FFBF00"/>
<path d="M16.5881 4.33888C16.8563 4.24316 17.0945 4.53993 16.943 4.78104L15.5164 7.05124C15.4067 7.22588 15.1575 7.24026 15.0285 7.0794L13.9298 5.7105C13.8007 5.54965 13.8687 5.30952 14.0629 5.24019L16.5881 4.33888Z" fill="#FFBF00"/>
</svg>
