<svg width="22" height="22" viewBox="0 0 22 22" fill="none" xmlns="http://www.w3.org/2000/svg">
<circle cx="14.6621" cy="7.93653" r="2.78321" fill="#53D24C"/>
<circle cx="7.46485" cy="7.93653" r="2.78321" fill="#0ABF00"/>
<path d="M12.9466 16.9943C12.9466 16.2744 12.8048 15.5615 12.5293 14.8964C12.2538 14.2313 11.85 13.6269 11.3409 13.1179C10.8319 12.6088 10.2275 12.205 9.5624 11.9295C8.89728 11.654 8.18442 11.5122 7.4645 11.5122C6.74458 11.5122 6.03171 11.654 5.3666 11.9295C4.70148 12.205 4.09714 12.6088 3.58808 13.1179C3.07903 13.6269 2.67522 14.2313 2.39972 14.8964C2.12422 15.5615 1.98242 16.2744 1.98242 16.9943L12.9466 16.9943Z" fill="#0ABF00"/>
<path d="M12.9404 16.73C12.9447 16.8179 12.9473 16.9064 12.9473 16.9946C12.9473 16.9063 12.9447 16.818 12.9404 16.73ZM14.6631 11.5122C15.3828 11.5122 16.0958 11.6538 16.7607 11.9292C17.4259 12.2047 18.031 12.6086 18.54 13.1177C19.0491 13.6267 19.453 14.2319 19.7285 14.897C20.0039 15.5619 20.1455 16.2749 20.1455 16.9946H13.7402C13.7402 16.1707 13.578 15.3545 13.2627 14.5933C12.9474 13.832 12.485 13.1398 11.9023 12.5571C11.8403 12.4951 11.7764 12.4348 11.7119 12.3755C11.9823 12.2027 12.2676 12.0526 12.5654 11.9292C13.2304 11.6538 13.9433 11.5122 14.6631 11.5122ZM12.8916 16.2222C12.8965 16.2566 12.9001 16.2912 12.9043 16.3257C12.9001 16.2912 12.8965 16.2566 12.8916 16.2222ZM12.8467 15.9536C12.8559 16.0013 12.8631 16.0493 12.8711 16.0972C12.8631 16.0493 12.8559 16.0013 12.8467 15.9536ZM12.7939 15.7104C12.7987 15.7303 12.8031 15.7502 12.8076 15.77C12.8031 15.7502 12.7987 15.7303 12.7939 15.7104ZM12.7246 15.4536C12.7358 15.4919 12.7465 15.5303 12.7568 15.5688C12.7465 15.5303 12.7358 15.4919 12.7246 15.4536ZM12.6465 15.2065C12.661 15.2486 12.674 15.2911 12.6875 15.3335C12.674 15.2911 12.661 15.2486 12.6465 15.2065ZM12.5801 15.022C12.5878 15.042 12.5941 15.0625 12.6016 15.0825C12.5785 15.0205 12.5556 14.9582 12.5303 14.897L12.5801 15.022ZM12.3066 14.4233C12.3271 14.4619 12.3457 14.5015 12.3652 14.5405C12.3457 14.5015 12.3271 14.4619 12.3066 14.4233ZM12.0439 13.981C12.0645 14.0121 12.0836 14.0441 12.1035 14.0757C12.0836 14.0441 12.0645 14.0121 12.0439 13.981ZM11.8926 13.7642C11.9175 13.7983 11.9417 13.833 11.9658 13.8677C11.9417 13.833 11.9175 13.7983 11.8926 13.7642ZM11.7354 13.5581C11.764 13.5937 11.7916 13.6302 11.8193 13.6665C11.7916 13.6302 11.764 13.5937 11.7354 13.5581ZM11.5732 13.3657C11.598 13.3938 11.6223 13.4222 11.6465 13.4507C11.6223 13.4222 11.598 13.3938 11.5732 13.3657ZM11.4355 13.2144C11.4485 13.228 11.4608 13.2426 11.4736 13.2563C11.4302 13.2097 11.3869 13.1628 11.3418 13.1177L11.4355 13.2144ZM12.9219 16.478C12.9286 16.5488 12.9336 16.6198 12.9375 16.6909C12.9336 16.6198 12.9286 16.5488 12.9219 16.478Z" fill="#53D24C"/>
</svg>
