<svg
        width="30"
        height="30"
        viewBox="0 0 30 30"
        fill="none"
        xmlns="http://www.w3.org/2000/svg"
>
    <path
            d="M11.1523 24.5227L10.8121 24.1895L11.1523 24.5227ZM15.9157 21.049L16.2559 20.7158L15.9157 21.049ZM14.555 21.049L14.2148 20.7158L14.555 21.049ZM20.9512 6.66527H20.475V23.8562H20.9512H21.4274V6.66527H20.9512ZM19.3184 24.5227L19.6586 24.1895L16.2559 20.7158L15.9157 21.049L15.5755 21.3822L18.9783 24.8559L19.3184 24.5227ZM14.555 21.049L14.2148 20.7158L10.8121 24.1895L11.1523 24.5227L11.4924 24.8559L14.8952 21.3822L14.555 21.049ZM9.51953 23.8562H9.99572V6.66527H9.51953H9.04334V23.8562H9.51953ZM10.4719 5.71289V6.18908H19.9988V5.71289V5.2367H10.4719V5.71289ZM9.51953 6.66527H9.99572C9.99572 6.40228 10.2089 6.18908 10.4719 6.18908V5.71289V5.2367C9.68293 5.2367 9.04334 5.87629 9.04334 6.66527H9.51953ZM11.1523 24.5227L10.8121 24.1895C10.5136 24.4942 9.99572 24.2829 9.99572 23.8562H9.51953H9.04334C9.04334 25.1361 10.5968 25.7702 11.4924 24.8559L11.1523 24.5227ZM15.9157 21.049L16.2559 20.7158C15.6957 20.1439 14.775 20.1439 14.2148 20.7158L14.555 21.049L14.8952 21.3822C15.0819 21.1916 15.3888 21.1916 15.5755 21.3822L15.9157 21.049ZM20.9512 23.8562H20.475C20.475 24.2829 19.9572 24.4942 19.6586 24.1895L19.3184 24.5227L18.9783 24.8559C19.8739 25.7702 21.4274 25.1361 21.4274 23.8562H20.9512ZM20.9512 6.66527H21.4274C21.4274 5.87629 20.7878 5.2367 19.9988 5.2367V5.71289V6.18908C20.2618 6.18908 20.475 6.40228 20.475 6.66527H20.9512Z"
            fill="#6F7176"
    />
</svg>