<svg width="18" height="18" viewBox="0 0 18 18" fill="none" xmlns="http://www.w3.org/2000/svg">
<path d="M0 4.5H18V15.5C18 16.6046 17.1046 17.5 16 17.5H2C0.89543 17.5 0 16.6046 0 15.5V4.5Z" fill="#AFFBAA"/>
<path d="M0 4.5H18V3.5C18 2.39543 17.1046 1.5 16 1.5H2C0.89543 1.5 0 2.39543 0 3.5V4.5Z" fill="#0ABF00"/>
<rect x="2" y="6.5" width="2" height="2" rx="0.5" fill="#39D230"/>
<rect x="2" y="10.5" width="2" height="2" rx="0.5" fill="#39D230"/>
<rect x="8" y="6.5" width="2" height="2" rx="0.5" fill="#39D230"/>
<rect x="8" y="10.5" width="2" height="2" rx="0.5" fill="#39D230"/>
<rect x="14" y="6.5" width="2" height="2" rx="0.5" fill="#39D230"/>
<rect x="14" y="10.5" width="2" height="2" rx="0.5" fill="#39D230"/>
<path d="M9 0.5V2.5" stroke="#022700" stroke-linecap="round"/>
<path d="M15 0.5V2.5" stroke="#022700" stroke-linecap="round"/>
<path d="M3 0.5V2.5" stroke="#022700" stroke-linecap="round"/>
</svg>
