<svg width="28" height="28" viewBox="0 0 28 28" fill="none" xmlns="http://www.w3.org/2000/svg">
<path d="M20 3L20 2.1H20V3ZM23 15L23.74 15.5123L23.74 15.5123L23 15ZM14.3086 25.2197L14.9137 25.886L14.9201 25.8801L14.3086 25.2197ZM14 25.5L13.3939 26.1653L13.999 26.7167L14.6051 26.1662L14 25.5ZM13.6924 25.2197L13.0785 25.8779L13.0862 25.885L13.6924 25.2197ZM5.10938 15L4.3694 15.5123L4.3694 15.5123L5.10938 15ZM8.10938 3L8.10941 2.1H8.10938V3ZM14.0537 6.89746L13.2584 7.31872L14.0538 8.82052L14.8491 7.31861L14.0537 6.89746ZM20 3L20 3.9C21.5705 3.90008 23.1426 4.98847 23.8437 6.876C24.5345 8.73576 24.3769 11.4299 22.26 14.4877L23 15L23.74 15.5123C26.1229 12.0702 26.4653 8.7645 25.5311 6.24927C24.6072 3.76181 22.4294 2.10012 20 2.1L20 3ZM23 15L22.26 14.4877C18.9269 19.3022 15.333 23.0445 13.6971 24.5594L14.3086 25.2197L14.9201 25.8801C16.6394 24.2881 20.323 20.448 23.74 15.5123L23 15ZM14.3086 25.2197L13.7035 24.5535L13.3949 24.8338L14 25.5L14.6051 26.1662L14.9137 25.886L14.3086 25.2197ZM14 25.5L14.6061 24.8347L14.2985 24.5544L13.6924 25.2197L13.0862 25.885L13.3939 26.1653L14 25.5ZM13.6924 25.2197L14.3062 24.5616C12.6874 23.0518 9.18741 19.3093 5.84935 14.4877L5.10938 15L4.3694 15.5123C7.78153 20.4409 11.3663 24.281 13.0785 25.8779L13.6924 25.2197ZM5.10938 15L5.84935 14.4877C3.73236 11.4298 3.57479 8.73562 4.26556 6.87587C4.96664 4.98835 6.53881 3.9 8.10938 3.9V3V2.1C5.67994 2.1 3.50211 3.76165 2.57819 6.24913C1.64396 8.76438 1.98639 12.0702 4.3694 15.5123L5.10938 15ZM8.10938 3L8.10934 3.9C9.41279 3.90005 10.5263 4.42762 11.4186 5.14077C12.3177 5.85936 12.9485 6.73359 13.2584 7.31872L14.0537 6.89746L14.849 6.4762C14.4371 5.69851 13.6552 4.62408 12.5424 3.73467C11.4227 2.83982 9.92493 2.10007 8.10941 2.1L8.10938 3ZM14.0537 6.89746L14.8491 7.31861C15.1587 6.7338 15.7898 5.85955 16.6893 5.14088C17.5821 4.42765 18.6962 3.9 20 3.9V3V2.1C18.1842 2.1 16.6859 2.83973 15.5658 3.73456C14.4526 4.62394 13.6702 5.69843 13.2583 6.47631L14.0537 6.89746Z" fill="#95969B"/>
</svg>
